<svg width="22" height="22" viewBox="0 0 22 22" fill="none" xmlns="http://www.w3.org/2000/svg">
<path d="M13.4436 3.75878C13.4248 3.97501 13.4231 4.19001 13.4385 4.40379C13.5771 6.32774 15.2453 7.77107 17.1607 7.63313C17.3745 7.61774 17.5779 7.57816 17.7892 7.52857L18.2861 14.4283C18.4949 17.3279 16.9085 19.1698 14.0012 19.3791L7.68297 19.8341C4.77482 20.0436 2.94087 18.448 2.73205 15.5484L2.27643 9.22159C2.06707 6.31429 3.65286 4.46385 6.56101 4.25442L13.4436 3.75878ZM13.9899 8.94534C13.7563 8.93637 13.5337 9.05555 13.4096 9.25358L11.5338 12.079L9.03015 10.3855C8.87678 10.2848 8.70263 10.2535 8.5329 10.2838C8.36459 10.3217 8.21738 10.426 8.12377 10.5703L5.8307 14.0454L5.78408 14.1261C5.65836 14.4094 5.75201 14.755 6.02215 14.9255C6.1474 14.9939 6.27936 15.0359 6.42473 15.0255C6.62287 15.0198 6.80268 14.9028 6.91076 14.7326L8.85807 11.8153L11.4269 13.4705L11.5075 13.5154C11.7916 13.6411 12.1288 13.5489 12.3069 13.2773L14.5485 9.91075L14.5155 9.93032C14.6388 9.73235 14.6472 9.49107 14.5377 9.28408C14.4291 9.07702 14.2126 8.94649 13.9899 8.94534ZM16.8741 1.98152C18.0114 1.89962 19.0014 2.75661 19.0833 3.89388C19.1652 5.03115 18.3082 6.02115 17.171 6.10305C16.0337 6.18495 15.0437 5.32796 14.9618 4.19069C14.8799 3.05342 15.7369 2.06342 16.8741 1.98152Z" fill="#060B27"/>
</svg>
