<svg width="24" height="24" viewBox="0 0 24 24" fill="none" xmlns="http://www.w3.org/2000/svg">
<g clip-path="url(#clip0_253_341)">
<path d="M14.2161 2.89185C17.0483 2.32305 18.9698 3.60833 19.5469 6.43887L21.109 14.2168C21.6776 17.0482 20.3932 18.9782 17.561 19.547L9.78387 21.1089C6.95166 21.6777 5.02249 20.3931 4.45386 17.5617L2.8918 9.78375C2.323 6.95154 3.60678 5.02254 6.43898 4.45374L14.2161 2.89185ZM11.4351 7.02838C11.1726 6.9338 10.8895 6.99067 10.6939 7.17722C10.4965 7.36328 10.4244 7.64719 10.5004 7.90049L12.2046 16.3863C12.319 16.7358 12.6715 16.9423 13.0213 16.872C13.3802 16.8 13.6256 16.4734 13.587 16.1087L11.8828 7.62287C11.8643 7.35803 11.6882 7.12396 11.4351 7.02838ZM8.09464 10.5408C7.84136 10.4444 7.55739 10.5015 7.36181 10.688C7.16457 10.8749 7.09217 11.1572 7.16916 11.4111L8.32482 17.1655C8.42921 17.517 8.78252 17.7233 9.14061 17.6514C9.49953 17.5793 9.74497 17.2528 9.70636 16.888L8.55071 11.1337C8.52451 10.8695 8.34708 10.6374 8.09464 10.5408ZM16.4122 12.0152C16.1598 11.9187 15.8767 11.9755 15.6719 12.1639C15.4747 12.3508 15.4006 12.6247 15.4876 12.8854L16.0361 15.6168C16.1414 15.9682 16.4939 16.1746 16.8528 16.1026C17.2025 16.0323 17.448 15.7058 17.4185 15.3392L16.87 12.6077C16.8404 12.3356 16.6663 12.1115 16.4122 12.0152Z" fill="#060B27"/>
</g>
<defs>
<clipPath id="clip0_253_341">
<rect width="20" height="20" fill="white" transform="translate(0 4.01384) scale(1.01926) rotate(-11.3557)"/>
</clipPath>
</defs>
</svg>
