<svg width="84" height="74" viewBox="0 0 84 74" fill="none" xmlns="http://www.w3.org/2000/svg">
<path d="M83.9225 41.772C82.3053 48.213 79.2048 54.1867 74.8685 59.2163C70.5321 64.2459 65.08 68.1922 58.9473 70.74C52.8147 73.2879 46.1713 74.3667 39.5475 73.8905C32.9237 73.4143 26.503 71.3962 20.7979 67.9973C15.0927 64.5984 10.2612 59.9128 6.6889 54.3146C3.11661 48.7164 0.902525 42.3606 0.223378 35.7546C-0.455769 29.1485 0.418832 22.4752 2.77737 16.2673C5.1359 10.0593 8.91305 4.48875 13.8073 0.000156759L18.3738 4.97939C14.2557 8.75615 11.0776 13.4433 9.09309 18.6668C7.10859 23.8902 6.37269 29.5052 6.94413 35.0637C7.51558 40.6221 9.37854 45.9699 12.3843 50.6803C15.3901 55.3907 19.4554 59.3332 24.2558 62.1931C29.0562 65.053 34.4587 66.751 40.032 67.1517C45.6053 67.5524 51.1951 66.6446 56.3552 64.5009C61.5154 62.3571 66.1029 59.0367 69.7515 54.8047C73.4002 50.5727 76.009 45.5463 77.3697 40.1268L83.9225 41.772Z" fill="#32CAFD"/>
</svg>
