<svg width="41" height="20" viewBox="0 0 41 20" fill="none" xmlns="http://www.w3.org/2000/svg">
<g clip-path="url(#clip0_253_69)">
<path d="M14.4584 8.91668C14.3674 9.77019 14.0762 10.5902 13.6083 11.3098C13.0526 12.1727 12.2675 12.8638 11.3412 13.3057C10.4148 13.7476 9.38371 13.9229 8.36336 13.8119C7.50985 13.721 6.68988 13.4297 5.97024 12.9619L2.1512 13.7879L3.78179 10.2371C3.48023 9.43344 3.37276 8.56994 3.46814 7.71691C3.57992 6.69665 3.97354 5.72765 4.60492 4.91846C5.23631 4.10927 6.08051 3.49184 7.04297 3.13534C7.8466 2.83378 8.7101 2.72631 9.56313 2.82169L9.88637 2.85698C11.2257 3.07842 12.4364 3.78611 13.2865 4.84456C14.1366 5.90301 14.5664 7.23782 14.4936 8.59344L14.4584 8.91668Z" stroke="#8F9BB7" stroke-width="1.54105" stroke-linecap="round" stroke-linejoin="round"/>
</g>
<g clip-path="url(#clip1_253_69)">
<path d="M36.5564 9.03965C36.6687 8.01091 36.3677 6.97968 35.7197 6.17283C35.0717 5.36599 34.1297 4.84961 33.1009 4.73731C32.0722 4.625 31.0409 4.92597 30.2341 5.57399C29.4272 6.22201 28.9109 7.16401 28.7986 8.19276C28.3045 12.7181 26.2239 13.7994 26.2239 13.7994L37.8606 15.0697C37.8606 15.0697 36.0623 13.565 36.5564 9.03965Z" stroke="#8F9BB7" stroke-width="1.54105" stroke-linecap="round" stroke-linejoin="round"/>
<path d="M32.8785 17.1423C32.7434 17.3259 32.5626 17.4707 32.3539 17.5623C32.1453 17.6539 31.9163 17.6892 31.6898 17.6644C31.4632 17.6397 31.2472 17.5559 31.0633 17.4214C30.8793 17.2869 30.7339 17.1065 30.6417 16.8981" stroke="#8F9BB7" stroke-width="1.54105" stroke-linecap="round" stroke-linejoin="round"/>
</g>
<defs>
<clipPath id="clip0_253_69">
<rect width="15.4105" height="15.4105" fill="white" transform="translate(1.69377) scale(1.0128) rotate(6.23012)"/>
</clipPath>
<clipPath id="clip1_253_69">
<rect width="15.4105" height="15.4105" fill="white" transform="translate(25.4843 2.59728) scale(1.0128) rotate(6.23012)"/>
</clipPath>
</defs>
</svg>
