<svg width="43" height="30" viewBox="0 0 43 30" fill="none" xmlns="http://www.w3.org/2000/svg">
<g clip-path="url(#clip0_222_8)">
<path d="M2.15833 0.358316C2.69166 0.133316 3.25833 -0.00835088 3.83333 -1.75464e-05C15.5 -1.75464e-05 27.1667 -1.75464e-05 38.8333 -1.75464e-05C39.4083 -0.00835088 39.9833 0.133316 40.5083 0.366649C37.6667 3.23332 34.7833 6.06665 31.925 8.92498C29.5 11.3333 27.075 13.75 24.6583 16.1583C24.3583 16.4416 24.0833 16.7583 23.7583 17.0166C22.8 17.8666 21.3833 18.1416 20.1667 17.7333C19.5583 17.55 19.0333 17.175 18.5833 16.7416C13.225 11.4083 7.86666 6.07498 2.49999 0.741649C2.38333 0.616649 2.25833 0.499982 2.15833 0.358316Z" fill="#B756FE"/>
<path d="M0.366667 2.15002C4.69167 6.42502 9 10.7167 13.3167 15C9 19.2834 4.69167 23.575 0.366667 27.85C0.166667 27.3917 0.0333333 26.9 0 26.3917V3.60836C0.0333333 3.10002 0.166667 2.60836 0.366667 2.15002Z" fill="#F6F6F7"/>
<path d="M29.35 15C33.6666 10.7167 37.9666 6.41669 42.3 2.15002C42.5 2.60836 42.6416 3.10002 42.6666 3.60836V26.4C42.6333 26.9 42.5 27.4 42.3 27.8584C37.975 23.575 33.6666 19.2834 29.35 15Z" fill="#F6F6F7"/>
<path d="M5.14166 26.6416C8.45833 23.3499 11.7667 20.0583 15.0833 16.7666C15.725 17.3999 16.35 18.0416 16.9917 18.6666C17.925 19.5749 19.15 20.1749 20.4333 20.3583C22.2583 20.6333 24.1917 20.0499 25.5417 18.7916C26.2417 18.1333 26.9 17.4416 27.5833 16.7666C30.2417 19.4083 32.9 22.0499 35.5583 24.6916C37.2083 26.3416 38.8833 27.9666 40.5167 29.6333C39.9917 29.8666 39.4167 30.0083 38.8417 29.9999C27.175 29.9999 15.5083 29.9999 3.84166 29.9999C3.25833 30.0083 2.69166 29.8666 2.15833 29.6333C3.12499 28.6166 4.14999 27.6416 5.14166 26.6416Z" fill="#F6F6F7"/>
</g>
<defs>
<clipPath id="clip0_222_8">
<rect width="42.6667" height="30" fill="white"/>
</clipPath>
</defs>
</svg>
