<svg width="155" height="37" viewBox="0 0 155 37" fill="none" xmlns="http://www.w3.org/2000/svg">
<path d="M31.1874 16.5304V21.8267C31.1874 24.1733 31.1858 25.8334 31.078 27.1304C30.9718 28.4073 30.7706 29.1854 30.4525 29.7955C29.8336 30.9841 28.8622 31.9536 27.6703 32.571C27.0587 32.8883 26.2787 33.0891 24.9987 33.195C23.6986 33.3025 22.0345 33.3042 19.6824 33.3042H14.7839C12.4317 33.3042 10.7677 33.3025 9.46778 33.195C8.18745 33.0891 7.40774 32.8883 6.796 32.571C5.60432 31.9536 4.63267 30.9841 4.01363 29.7955C3.69586 29.1854 3.49465 28.4073 3.38829 27.1304C3.28037 25.8334 3.27901 24.1733 3.27901 21.8267V16.9402C3.27901 14.5936 3.28037 12.9337 3.38829 11.6368C3.49465 10.3596 3.69586 9.58174 4.01363 8.97148C4.63267 7.78267 5.60432 6.81336 6.796 6.19582C7.40774 5.87881 8.18745 5.67808 9.46778 5.57202C10.7677 5.46432 12.4316 5.46301 14.7839 5.46301H20.0931C20.1405 4.31644 20.37 3.21674 20.7532 2.1919H14.711C12.4481 2.19186 10.648 2.19186 9.1964 2.31211C7.70965 2.43527 6.44223 2.69303 5.28446 3.29299C3.49387 4.22088 2.03393 5.67735 1.1038 7.46362C0.502386 8.61857 0.244 9.88293 0.120545 11.3661C7.08486e-07 12.8142 0 14.6099 0 16.8674V21.8994C0 24.1569 7.08486e-07 25.9528 0.120545 27.401C0.244 28.8841 0.502386 30.1484 1.1038 31.3035C2.03393 33.0895 3.49387 34.546 5.28446 35.4741C6.44223 36.074 7.70965 36.3316 9.1964 36.4551C10.648 36.5753 12.448 36.5753 14.7109 36.5753H19.7553C22.0181 36.5753 23.8183 36.5753 25.27 36.4551C26.7567 36.3316 28.024 36.074 29.1819 35.4741C30.9722 34.546 32.4322 33.0895 33.3626 31.3035C33.9639 30.1484 34.2221 28.8841 34.3459 27.401C34.4664 25.9528 34.4664 24.1569 34.4664 21.8998V15.8718C33.4389 16.2542 32.3367 16.4831 31.1874 16.5304Z" fill="white"/>
<path d="M58.1911 16.4918C58.1911 17.4961 57.9485 18.4375 57.4632 19.3164C56.9959 20.1951 56.25 20.9033 55.2253 21.4414C54.2186 21.9791 52.9423 22.2481 51.3962 22.2481H48.2414V29.4572H44.4664V10.6816H51.3962C52.8525 10.6816 54.0928 10.9327 55.1175 11.4348C56.1418 11.9369 56.9058 12.6273 57.4091 13.506C57.9305 14.3847 58.1911 15.38 58.1911 16.4918ZM51.2343 19.2086C52.277 19.2086 53.0501 18.9755 53.5534 18.5092C54.0567 18.025 54.3084 17.3526 54.3084 16.4918C54.3084 14.6627 53.2837 13.7481 51.2343 13.7481H48.2414V19.2086H51.2343Z" fill="white"/>
<path d="M63.9661 16.8689C64.4514 16.0798 65.0806 15.4611 65.8536 15.0128C66.6443 14.5645 67.5431 14.3403 68.5498 14.3403V18.2945H67.5521C66.366 18.2945 65.4671 18.5725 64.856 19.1283C64.2625 19.6844 63.9661 20.6527 63.9661 22.0335V29.4577H60.1912V14.5555H63.9661V16.8689Z" fill="white"/>
<path d="M78.1264 29.4576C76.6885 29.4576 75.3941 29.1436 74.2436 28.5159C73.0931 27.8703 72.1856 26.965 71.5204 25.7993C70.8732 24.6335 70.5498 23.2887 70.5498 21.7644C70.5498 20.24 70.8822 18.8952 71.5474 17.7296C72.2303 16.564 73.1562 15.6673 74.3248 15.0397C75.4929 14.3941 76.7963 14.0713 78.2346 14.0713C79.6724 14.0713 80.9758 14.3941 82.1444 15.0397C83.3125 15.6673 84.2294 16.564 84.8947 17.7296C85.5775 18.8952 85.9194 20.24 85.9194 21.7644C85.9194 23.2887 85.5685 24.6335 84.8676 25.7993C84.1844 26.965 83.2498 27.8703 82.0632 28.5159C80.8947 29.1436 79.5827 29.4576 78.1264 29.4576ZM78.1264 26.1759C78.8096 26.1759 79.4478 26.0144 80.0409 25.6917C80.652 25.3511 81.1377 24.849 81.4972 24.1854C81.8567 23.5218 82.0362 22.715 82.0362 21.7644C82.0362 20.3476 81.6587 19.2628 80.9037 18.5096C80.1667 17.7385 79.2589 17.353 78.1805 17.353C77.1021 17.353 76.1942 17.7385 75.4573 18.5096C74.7379 19.2628 74.3785 20.3476 74.3785 21.7644C74.3785 23.1812 74.7289 24.2749 75.4302 25.0461C76.1491 25.7993 77.048 26.1759 78.1264 26.1759Z" fill="white"/>
<path d="M87.9193 21.7107C87.9193 20.2043 88.2157 18.8682 88.8092 17.7025C89.4203 16.5369 90.247 15.6403 91.2897 15.0126C92.3325 14.385 93.4916 14.0712 94.7679 14.0712C95.7389 14.0712 96.6644 14.2864 97.5453 14.7168C98.4261 15.1292 99.1274 15.6851 99.6483 16.3845V9.31006H103.477V29.2154H99.6483V27.0095C99.1811 27.7446 98.5249 28.3367 97.6801 28.7849C96.8354 29.2334 95.8558 29.4575 94.7409 29.4575C93.4826 29.4575 92.3325 29.1345 91.2897 28.4892C90.247 27.8436 89.4203 26.9379 88.8092 25.7722C88.2157 24.5888 87.9193 23.2346 87.9193 21.7107ZM99.6754 21.7642C99.6754 20.8496 99.4959 20.0698 99.1364 19.4242C98.7765 18.7605 98.2912 18.2585 97.6801 17.9177C97.069 17.5591 96.4128 17.3798 95.7119 17.3798C95.0106 17.3798 94.3634 17.5501 93.7703 17.8908C93.1772 18.2316 92.6919 18.7337 92.3144 19.3972C91.955 20.0428 91.775 20.814 91.775 21.7107C91.775 22.607 91.955 23.3961 92.3144 24.0777C92.6919 24.7409 93.1772 25.2521 93.7703 25.6107C94.3814 25.9697 95.0286 26.1488 95.7119 26.1488C96.4128 26.1488 97.069 25.9787 97.6801 25.6376C98.2912 25.279 98.7765 24.7769 99.1364 24.1313C99.4959 23.4681 99.6754 22.6789 99.6754 21.7642Z" fill="white"/>
<path d="M119.714 14.3672V29.2694H115.912V27.3864C115.427 28.0321 114.789 28.5432 113.998 28.9198C113.225 29.2783 112.38 29.4574 111.463 29.4574C110.295 29.4574 109.261 29.2154 108.363 28.7313C107.464 28.2291 106.754 27.503 106.232 26.5523C105.729 25.584 105.477 24.4363 105.477 23.1094V14.3672H109.252V22.5713C109.252 23.7551 109.549 24.6694 110.142 25.315C110.735 25.9426 111.544 26.2567 112.569 26.2567C113.611 26.2567 114.43 25.9426 115.023 25.315C115.616 24.6694 115.912 23.7551 115.912 22.5713V14.3672H119.714Z" fill="white"/>
<path d="M121.714 21.7644C121.714 20.222 122.029 18.8772 122.658 17.7296C123.288 16.564 124.159 15.6673 125.274 15.0397C126.388 14.3941 127.665 14.0713 129.102 14.0713C130.954 14.0713 132.482 14.5375 133.687 15.4701C134.909 16.3846 135.727 17.6758 136.14 19.3433H132.069C131.853 18.6979 131.484 18.1958 130.963 17.8372C130.46 17.4606 129.831 17.2723 129.076 17.2723C127.997 17.2723 127.143 17.6668 126.514 18.4558C125.885 19.2268 125.57 20.33 125.57 21.7644C125.57 23.1812 125.885 24.2839 126.514 25.0731C127.143 25.8443 127.997 26.2298 129.076 26.2298C130.603 26.2298 131.601 25.5482 132.069 24.1854H136.14C135.727 25.7993 134.909 27.0816 133.687 28.0318C132.464 28.9825 130.936 29.4576 129.102 29.4576C127.665 29.4576 126.388 29.1436 125.274 28.5159C124.159 27.8703 123.288 26.974 122.658 25.8263C122.029 24.6605 121.714 23.3067 121.714 21.7644Z" fill="white"/>
<path d="M143.721 17.6486V24.8574C143.721 25.3595 143.838 25.7271 144.072 25.9606C144.324 26.1757 144.737 26.2832 145.313 26.2832H147.065V29.4574H144.692C141.511 29.4574 139.919 27.9151 139.919 24.8308V17.6486H138.14V14.5553H139.919V10.8701H143.721V14.5553H147.065V17.6486H143.721Z" fill="white"/>
<path d="M22 7.36C22 3.29519 25.3032 0 29.3778 0C33.4524 0 36.7556 3.29519 36.7556 7.36C36.7556 11.4248 33.4524 14.72 29.3778 14.72C25.3032 14.72 22 11.4248 22 7.36Z" fill="#7214FF"/>
<path d="M151.346 29.7953C150.663 29.7953 150.096 29.5888 149.647 29.1766C149.216 28.7461 149 28.217 149 27.5893C149 26.9617 149.216 26.4416 149.647 26.0294C150.096 25.5989 150.663 25.3838 151.346 25.3838C152.011 25.3838 152.559 25.5989 152.991 26.0294C153.422 26.4416 153.638 26.9617 153.638 27.5893C153.638 28.217 153.422 28.7461 152.991 29.1766C152.559 29.5888 152.011 29.7953 151.346 29.7953Z" fill="#7214FF"/>
</svg>
