<svg width="181" height="34" viewBox="0 0 181 34" fill="none" xmlns="http://www.w3.org/2000/svg">
<rect x="0.5" y="0.5" width="33" height="33" rx="7.5" fill="#060B27"/>
<rect x="0.5" y="0.5" width="33" height="33" rx="7.5" stroke="#282D45"/>
<path d="M19 18.35H21.1429L22 14.75H19V12.95C19 12.023 19 11.15 20.7143 11.15H22V8.126C21.7206 8.0873 20.6654 8 19.5511 8C17.224 8 15.5714 9.4913 15.5714 12.23V14.75H13V18.35H15.5714V26H19V18.35Z" fill="#8F9BB7"/>
<rect x="49.5" y="0.5" width="33" height="33" rx="7.5" fill="#060B27"/>
<rect x="49.5" y="0.5" width="33" height="33" rx="7.5" stroke="#282D45"/>
<path d="M75 11.7647C74.3375 12.0735 73.6233 12.2765 72.8834 12.3735C73.6405 11.9059 74.2256 11.1647 74.501 10.2735C73.7868 10.7147 72.9952 11.0235 72.1606 11.2C71.4809 10.4412 70.5258 10 69.4417 10C67.4197 10 65.7677 11.6941 65.7677 13.7853C65.7677 14.0853 65.8021 14.3765 65.8623 14.65C62.7992 14.4912 60.0717 12.9824 58.2562 10.6971C57.9379 11.2529 57.7572 11.9059 57.7572 12.5941C57.7572 13.9088 58.4025 15.0735 59.4006 15.7353C58.7897 15.7353 58.2218 15.5588 57.7228 15.2941V15.3206C57.7228 17.1559 58.9962 18.6912 60.6826 19.0353C60.1412 19.1872 59.5727 19.2084 59.022 19.0971C59.2557 19.8492 59.7134 20.5074 60.3307 20.9791C60.948 21.4507 61.694 21.7121 62.4637 21.7265C61.159 22.7857 59.5417 23.3582 57.8776 23.35C57.5851 23.35 57.2925 23.3324 57 23.2971C58.6348 24.3735 60.5793 25 62.6616 25C69.4417 25 73.1673 19.2294 73.1673 14.2265C73.1673 14.0588 73.1673 13.9 73.1587 13.7324C73.8815 13.2029 74.501 12.5324 75 11.7647Z" fill="#8F9BB7"/>
<rect x="98.5" y="0.5" width="33" height="33" rx="7.5" fill="#060B27"/>
<rect x="98.5" y="0.5" width="33" height="33" rx="7.5" stroke="#282D45"/>
<path d="M110.568 10.7786C110.567 11.25 110.379 11.7021 110.045 12.0353C109.71 12.3685 109.256 12.5556 108.783 12.5554C108.31 12.5551 107.856 12.3676 107.522 12.0341C107.187 11.7005 107 11.2483 107 10.7768C107 10.3053 107.188 9.85325 107.523 9.52004C107.858 9.18683 108.312 8.99976 108.785 9C109.258 9.00024 109.711 9.18775 110.046 9.5213C110.38 9.85484 110.568 10.3071 110.568 10.7786ZM110.621 13.8717H107.054V25H110.621V13.8717ZM116.258 13.8717H112.708V25H116.222V19.1603C116.222 15.9072 120.477 15.605 120.477 19.1603V25H124V17.9515C124 12.4674 117.703 12.6718 116.222 15.365L116.258 13.8717Z" fill="#8F9BB7"/>
<rect x="147.5" y="0.5" width="33" height="33" rx="7.5" fill="#060B27"/>
<rect x="147.5" y="0.5" width="33" height="33" rx="7.5" stroke="#282D45"/>
<path d="M166.56 17C166.56 17.5063 166.41 18.0013 166.129 18.4223C165.847 18.8432 165.447 19.1714 164.98 19.3651C164.512 19.5589 163.997 19.6096 163.501 19.5108C163.004 19.412 162.548 19.1682 162.19 18.8102C161.832 18.4522 161.588 17.996 161.489 17.4994C161.39 17.0028 161.441 16.4881 161.635 16.0203C161.829 15.5526 162.157 15.1527 162.578 14.8714C162.999 14.5901 163.494 14.44 164 14.44C164.678 14.4421 165.328 14.7125 165.808 15.1921C166.287 15.6718 166.558 16.3217 166.56 17ZM172 13.48V20.52C172 21.7082 171.528 22.8477 170.688 23.6878C169.848 24.528 168.708 25 167.52 25H160.48C159.292 25 158.152 24.528 157.312 23.6878C156.472 22.8477 156 21.7082 156 20.52V13.48C156 12.2918 156.472 11.1523 157.312 10.3122C158.152 9.472 159.292 9 160.48 9H167.52C168.708 9 169.848 9.472 170.688 10.3122C171.528 11.1523 172 12.2918 172 13.48ZM167.84 17C167.84 16.2405 167.615 15.4981 167.193 14.8666C166.771 14.2351 166.171 13.7429 165.47 13.4523C164.768 13.1617 163.996 13.0856 163.251 13.2338C162.506 13.382 161.822 13.7477 161.285 14.2847C160.748 14.8217 160.382 15.506 160.234 16.2509C160.086 16.9957 160.162 17.7678 160.452 18.4695C160.743 19.1712 161.235 19.7709 161.867 20.1928C162.498 20.6148 163.241 20.84 164 20.84C165.018 20.84 165.995 20.4354 166.715 19.7153C167.435 18.9952 167.84 18.0184 167.84 17ZM169.12 12.84C169.12 12.6501 169.064 12.4645 168.958 12.3067C168.853 12.1488 168.703 12.0257 168.527 11.9531C168.352 11.8804 168.159 11.8614 167.973 11.8984C167.786 11.9355 167.615 12.0269 167.481 12.1612C167.347 12.2954 167.255 12.4665 167.218 12.6527C167.181 12.8389 167.2 13.032 167.273 13.2074C167.346 13.3828 167.469 13.5327 167.627 13.6382C167.785 13.7437 167.97 13.8 168.16 13.8C168.415 13.8 168.659 13.6989 168.839 13.5188C169.019 13.3388 169.12 13.0946 169.12 12.84Z" fill="#8F9BB7"/>
</svg>
